Coordinates
version=1
nRows=8
nColumns=36
inDegrees=yes

Units are S.I. units (second, meters, Newtons, ...)
Angles are in degrees.

endheader
time	pelvis_tilt	pelvis_list	pelvis_rotation	pelvis_tx	pelvis_ty	pelvis_tz	hip_flexion_r	hip_adduction_r	hip_rotation_r	knee_angle_r	ankle_angle_r	subtalar_angle_r	hip_flexion_l	hip_adduction_l	hip_rotation_l	knee_angle_l	ankle_angle_l	subtalar_angle_l	lumbar_extension	lumbar_bending	lumbar_rotation	arm_flex_r	arm_add_r	arm_rot_r	elbow_flex_r	pro_sup_r	wrist_flex_r	wrist_dev_r	arm_flex_l	arm_add_l	arm_rot_l	elbow_flex_l	pro_sup_l	wrist_flex_l	wrist_dev_l
      1.10000000	      1.05159129	     -0.79863444	      1.46376043	     -0.98317996	      0.92672670	     -0.26317575	     -4.88102692	      6.45860119	     -6.69913407	    -12.75921023	     11.13556116	      4.52746191	     25.84286191	      1.36439345	      2.85049379	    -32.74428661	      1.92460084	     -9.10932970	     -8.66910212	      3.69883376	      3.19511874	      5.88780970	    -23.18961880	     16.34236446	     34.01860542	     86.51662706	      0.00000000	      0.00000000	     -2.82261994	    -13.03672695	     24.21041295	     11.94640719	     86.51662706	      0.00000000	      0.00000000
      1.11000000	      1.07515930	     -0.93156661	      1.29683348	     -0.97082219	      0.92493864	     -0.26271292	     -6.08082834	      6.65748930	     -6.46037545	    -12.19481468	     11.70398565	      4.57568866	     26.00249629	      1.20558572	      2.82088624	    -29.44775150	      2.53809217	     -8.74019336	     -8.75691933	      3.82079609	      3.50225117	      6.19453493	    -23.43898836	     16.28435840	     34.87243933	     86.51662706	      0.00000000	      0.00000000	     -3.30537671	    -12.99654650	     24.30615641	     11.67252163	     86.51662706	      0.00000000	      0.00000000
      1.12000000	      1.09759758	     -1.00860414	      1.17845174	     -0.95840771	      0.92301582	     -0.26241929	     -7.19214073	      6.78762608	     -6.26851058	    -11.80473435	     12.23981951	      4.63751445	     26.09605277	      1.12804294	      2.83338668	    -26.15484031	      3.05984559	     -8.17308209	     -8.84196296	      3.89031110	      3.73219654	      6.48546706	    -23.67372407	     16.16814726	     35.66678450	     86.51662706	      0.00000000	      0.00000000	     -3.70331387	    -12.90823522	     24.40684264	     11.22653250	     86.51662706	      0.00000000	      0.00000000
      1.13000000	      1.11218783	     -1.05222341	      1.09504225	     -0.94593099	      0.92098040	     -0.26227336	     -8.22142494	      6.87409700	     -6.11142245	    -11.56229003	     12.74182242	      4.70119961	     26.15028968	      1.10267997	      2.85389409	    -22.92802141	      3.50202681	     -7.37494229	     -8.91239847	      3.93011665	      3.90170000	      6.75228799	    -23.89615776	     16.00114586	     36.41332055	     86.51662706	      0.00000000	      0.00000000	     -4.03220676	    -12.78134117	     24.52908780	     10.64811443	     86.51662706	      0.00000000	      0.00000000
      1.14000000	      1.11143202	     -1.08723386	      1.03191111	     -0.93338428	      0.91886288	     -0.26224808	     -9.17515789	      6.94261482	     -5.97582801	    -11.44190330	     13.20654645	      4.75863172	     26.19711073	      1.09940167	      2.84237899	    -19.85604937	      3.88216775	     -6.32182222	     -8.95771622	      3.96515973	      4.02964025	      6.98462862	    -24.10891464	     15.79083269	     37.12543940	     86.51662706	      0.00000000	      0.00000000	     -4.30856215	    -12.62619609	     24.69179956	      9.98398431	     86.51662706	      0.00000000	      0.00000000
      1.15000000	      1.09028081	     -1.13364786	      0.97667459	     -0.92076412	      0.91669561	     -0.26231543	    -10.05763609	      7.01096751	     -5.85031087	    -11.42842667	     13.62814477	      4.81040163	     26.26593839	      1.09649591	      2.76492079	    -17.04386177	      4.22148342	     -5.01848410	     -8.97333367	      4.01522546	      4.13288953	      7.17175722	    -24.31385323	     15.54225827	     37.81446165	     86.51662706	      0.00000000	      0.00000000	     -4.54526187	    -12.45172847	     24.91167175	      9.27822029	     86.51662706	      0.00000000	      0.00000000
      1.16000000	      1.04905251	     -1.20213816	      0.91987609	     -0.90807436	      0.91450253	     -0.26245300	    -10.87051581	      7.08496655	     -5.72686898	    -11.52033641	     13.99930144	      4.86691010	     26.37832949	      1.08474416	      2.60386160	    -14.60233076	      4.54164130	     -3.50998075	     -8.96190241	      4.09023604	      4.22469443	      7.30325795	    -24.51098201	     15.25689103	     38.48692421	     86.51662706	      0.00000000	      0.00000000	     -4.75037885	    -12.26514213	     25.20057263	      8.56688597	     86.51662706	      0.00000000	      0.00000000
      1.17000000	      0.99435992	     -1.29233870	      0.85395057	     -0.89531803	      0.91230488	     -0.26265013	    -11.61458534	      7.15820650	     -5.60161830	    -11.72765425	     14.31299016	      4.94619547	     26.54494066	      1.06704824	      2.36435654	    -12.63682896	      4.85905422	     -1.88328575	     -8.93134984	      4.18820551	      4.31471692	      7.36902221	    -24.69754322	     14.93265278	     39.14302052	     86.51662706	      0.00000000	      0.00000000	     -4.92844998	    -12.07273875	     25.56443046	      7.87595894	     86.51662706	      0.00000000	      0.00000000
